HIERARCHY
ROOT Hips
{
	OFFSET 0.000000 0.000000 0.000000 
	CHANNELS 6 Xposition Yposition Zposition Zrotation Yrotation Xrotation
	JOINT LeftUpLeg
	{
		OFFSET 1.363060 -1.794630 0.839290 
		CHANNELS 3 Zrotation Yrotation Xrotation
		JOINT LeftLeg
		{
			OFFSET 2.448110 -6.726130 0.000000 
			CHANNELS 3 Zrotation Yrotation Xrotation
			JOINT LeftFoot
			{
				OFFSET 2.562200 -7.039590 0.000000 
				CHANNELS 3 Zrotation Yrotation Xrotation
				JOINT LeftToeBase
				{
					OFFSET 0.157640 -0.433110 2.322550 
					CHANNELS 3 Zrotation Yrotation Xrotation
					End Site
					{
						OFFSET 0.000000 0.000000 0.000000 
					}
				}
			}
		}
	}
	JOINT RightUpLeg
	{
		OFFSET -1.305520 -1.794630 0.839290 
		CHANNELS 3 Zrotation Yrotation Xrotation
		JOINT RightLeg
		{
			OFFSET -2.542530 -6.985550 0.000000 
			CHANNELS 3 Zrotation Yrotation Xrotation
			JOINT RightFoot
			{
				OFFSET -2.568260 -7.056230 0.000000 
				CHANNELS 3 Zrotation Yrotation Xrotation
				JOINT RightToeBase
				{
					OFFSET -0.164730 -0.452590 2.363150 
					CHANNELS 3 Zrotation Yrotation Xrotation
					End Site
					{
						OFFSET 0.000000 0.000000 0.000000 
					}
				}
			}
		}
	}
	JOINT Spine
	{
		OFFSET 0.028270 2.035590 -0.193380 
		CHANNELS 3 Zrotation Yrotation Xrotation
		JOINT Spine1
		{
			OFFSET 0.056720 2.048850 -0.042750 
			CHANNELS 3 Zrotation Yrotation Xrotation
			JOINT Neck1
			{
				OFFSET -0.054170 1.746240 0.172020 
				CHANNELS 3 Zrotation Yrotation Xrotation
				JOINT Head
				{
					OFFSET 0.104070 1.761360 -0.123970 
					CHANNELS 3 Zrotation Yrotation Xrotation
					End Site
					{
						OFFSET 0.000000 0.000000 0.000000 
					}
				}
			}
			JOINT LeftArm
			{
				OFFSET 3.362410 1.200890 -0.311210 
				CHANNELS 3 Zrotation Yrotation Xrotation
				JOINT LeftForeArm
				{
					OFFSET 4.983000 -0.000000 -0.000000 
					CHANNELS 3 Zrotation Yrotation Xrotation
					JOINT LeftHand
					{
						OFFSET 3.483560 -0.000000 -0.000000 
						CHANNELS 3 Zrotation Yrotation Xrotation
						JOINT LeftHandIndex1
						{
							OFFSET 0.715260 -0.000000 -0.000000 
							CHANNELS 3 Zrotation Yrotation Xrotation
							End Site
							{
								OFFSET 0.000000 0.000000 0.000000 
							}
						}
					}
				}
			}
			JOINT RightArm
			{
				OFFSET -3.136600 1.374050 -0.404650 
				CHANNELS 3 Zrotation Yrotation Xrotation
				JOINT RightForeArm
				{
					OFFSET -5.241900 -0.000000 -0.000000 
					CHANNELS 3 Zrotation Yrotation Xrotation
					JOINT RightHand
					{
						OFFSET -3.444170 -0.000000 -0.000000 
						CHANNELS 3 Zrotation Yrotation Xrotation
						JOINT RightHandIndex1
						{
							OFFSET -0.622530 -0.000000 -0.000000 
							CHANNELS 3 Zrotation Yrotation Xrotation
							End Site
							{
								OFFSET 0.000000 0.000000 0.000000 
							}
						}
					}
				}
			}
		}
	}
}
MOTION
Frames: 12
Frame Time: 0.041667
0.669840 9.169344 -4.396688 -2.100004 3.586725 6.912848 -0.399267 21.824876 -95.130057 35.488346 14.066571 141.010519 -1.546586 -40.317682 -18.469891 0.818600 -5.773100 -16.127500 16.747704 -41.072792 -107.225598 -35.971410 -11.199520 144.783929 -1.429664 28.055741 -15.305423 -0.044700 1.365100 -3.753900 9.166846 9.449377 28.740057 1.034521 4.967079 -4.169503 -1.143065 -8.753374 18.374666 -2.483100 -4.275400 10.693500 -78.798754 2.349751 67.058314 103.036112 -61.983116 -69.649824 1.055276 0.140514 13.050812 -7.125000 0.000000 0.000000 66.640344 57.686716 10.758117 -16.303690 33.108812 -2.082671 -0.315123 1.086968 16.688966 7.125000 0.000000 0.000000 
0.672115 9.165882 -4.391544 -2.071418 3.558989 6.825126 -0.350609 21.879534 -95.045516 35.508693 14.047073 141.084454 -1.487246 -40.293971 -18.707593 0.894800 -6.029000 -16.868600 16.663682 -41.206947 -107.111499 -35.975503 -11.188817 144.818574 -1.432948 28.060160 -15.320449 -0.049200 1.431900 -3.938100 8.937182 9.419417 28.748625 0.863893 4.939425 -4.185344 -1.066712 -8.749208 18.281252 -2.479100 -4.251900 10.633000 -78.570138 2.290537 67.038675 103.083227 -61.973145 -69.683436 1.056612 0.145562 13.195993 -7.125000 0.000000 0.000000 66.912920 57.482277 11.044883 -16.470039 33.330694 -2.176137 -0.294550 1.077248 16.884581 7.125000 0.000000 0.000000 
0.674983 9.163311 -4.386698 -2.098961 3.542926 6.709094 -0.158505 21.797866 -94.890481 35.518951 14.039823 141.117427 -1.474989 -40.325212 -18.789137 0.913000 -6.088300 -17.040800 16.637154 -41.306576 -106.945457 -35.978415 -11.184393 144.833519 -1.463148 27.996253 -15.464579 -0.057700 1.549400 -4.261800 8.848431 9.404537 28.775877 0.769640 4.928911 -4.173035 -0.938136 -8.785325 18.233156 -2.444000 -4.249100 10.601700 -78.472046 2.221679 67.049770 103.152979 -61.962591 -69.739156 1.058762 0.151929 13.180769 -7.125000 0.000000 0.000000 67.092481 57.318477 11.131105 -16.610696 33.519577 -2.259104 -0.267617 1.070818 17.327222 7.125000 0.000000 0.000000 
0.675082 9.158365 -4.381950 -2.038459 3.499325 6.752501 -0.057896 21.586638 -94.930178 35.520199 14.030610 141.161077 -1.613075 -40.432620 -18.287867 0.839000 -5.842900 -16.329200 16.606611 -41.312235 -107.050217 -35.993419 -11.164758 144.903145 -1.469979 27.982096 -15.498205 -0.063500 1.626300 -4.474100 8.862774 9.422378 28.763068 0.822052 4.935740 -4.211595 -0.895643 -8.799535 18.306848 -2.421800 -4.250600 10.622300 -78.473670 2.211838 67.092675 103.106018 -61.969547 -69.702662 1.061135 0.150633 13.197155 -7.125000 0.000000 0.000000 67.043270 57.160817 11.338079 -16.696916 33.598463 -2.304853 -0.259693 1.064839 17.496231 7.125000 0.000000 0.000000 
0.675577 9.153518 -4.378389 -1.938840 3.480604 6.848898 -0.128243 21.485913 -95.075768 35.530197 14.010267 141.240094 -1.675182 -40.391802 -17.976753 0.796000 -5.695000 -15.901900 16.518318 -41.333396 -107.274652 -36.011009 -11.137702 145.002938 -1.427380 28.066393 -15.279810 -0.058700 1.563500 -4.300700 8.898097 9.429955 28.742930 0.913371 4.936872 -4.253090 -0.939019 -8.773422 18.455622 -2.432400 -4.242100 10.692900 -78.506179 2.139369 67.160540 102.921826 -61.994620 -69.551969 1.062146 0.148173 13.215037 -7.125000 0.000000 0.000000 66.834134 57.057109 11.584178 -16.791995 33.679176 -2.350761 -0.261176 1.057078 17.383566 7.125000 0.000000 0.000000 
0.678346 9.151837 -4.372949 -1.888501 3.484227 6.873639 -0.210965 21.491107 -95.062381 35.540059 13.999053 141.278442 -1.595471 -40.230100 -18.173605 0.822800 -5.787600 -16.169500 16.456295 -41.448128 -107.380935 -36.022753 -11.120405 145.069151 -1.416816 28.117643 -15.237490 -0.061900 1.605800 -4.417400 8.913006 9.419057 28.752348 0.950843 4.933085 -4.238729 -0.977146 -8.739873 18.511241 -2.446800 -4.229600 10.726500 -78.500746 2.045407 67.240772 102.893864 -61.998868 -69.529404 1.059912 0.150231 13.118600 -7.125000 0.000000 0.000000 66.782075 57.003298 11.646832 -16.837211 33.728266 -2.373004 -0.257218 1.053831 17.508307 7.125000 0.000000 0.000000 
0.679731 9.153024 -4.363849 -1.827868 3.455355 6.828332 -0.255768 21.540939 -94.816330 35.543176 13.997293 141.274230 -1.519372 -40.181543 -18.468775 0.862200 -5.921100 -16.555800 16.382418 -41.618243 -107.312740 -36.025516 -11.117804 145.079713 -1.459993 28.095622 -15.486634 -0.080200 1.827200 -5.028400 8.891259 9.416774 28.776243 0.967229 4.931463 -4.224647 -0.965667 -8.716910 18.490936 -2.443600 -4.216600 10.716100 -78.451981 2.021938 67.257731 103.087877 -61.974480 -69.689894 1.056997 0.154106 13.105818 -7.125000 0.000000 0.000000 66.893412 56.937813 11.629881 -16.872836 33.784220 -2.392127 -0.250646 1.051496 17.819737 7.125000 0.000000 0.000000 
0.681610 9.149562 -4.355243 -1.798688 3.454545 6.854585 -0.335198 21.680449 -94.755716 35.582007 13.964144 141.384810 -1.201405 -39.847945 -19.545196 1.052600 -6.523900 -18.312400 16.324159 -41.798753 -107.347699 -36.029286 -11.106755 145.124307 -1.413837 28.307925 -15.306983 -0.062300 1.610900 -4.431400 8.852269 9.394639 28.786262 0.959253 4.920598 -4.201677 -0.953785 -8.699789 18.487800 -2.441400 -4.205300 10.712200 -78.372733 2.038195 67.242657 103.413641 -61.932702 -69.960182 1.054727 0.157146 13.119742 -7.125000 0.000000 0.000000 67.010763 56.876018 11.640505 -16.917286 33.849604 -2.416588 -0.244793 1.048354 18.152306 7.125000 0.000000 0.000000 
0.685270 9.143231 -4.348715 -1.878741 3.481235 6.898753 -0.385226 21.982858 -94.845993 35.652345 13.906701 141.586498 -0.651727 -39.171678 -21.315146 1.394200 -7.470000 -21.115400 16.336206 -41.907427 -107.395941 -36.030465 -11.095777 145.172485 -1.300875 28.648739 -14.789868 -0.032100 1.155700 -3.177400 8.853654 9.368429 28.779188 0.913635 4.912391 -4.172913 -0.988816 -8.670821 18.485376 -2.454900 -4.194800 10.710200 -78.332594 2.027595 67.264964 103.570067 -61.912053 -70.091391 1.053051 0.154688 13.121537 -7.125000 0.000000 0.000000 67.098374 56.853244 11.622415 -16.896609 33.828633 -2.405714 -0.241369 1.049293 18.584372 7.125000 0.000000 0.000000 
0.686853 9.142440 -4.342681 -1.980329 3.465319 6.863583 -0.335371 22.230273 -94.799619 35.686192 13.882663 141.672323 -0.381779 -38.812766 -22.169132 1.581000 -7.932600 -22.509600 16.356939 -41.928382 -107.266626 -36.025835 -11.097067 145.168937 -1.254654 28.795931 -14.580892 -0.022700 0.973600 -2.676200 8.827355 9.373116 28.750903 0.820416 4.913565 -4.210175 -1.087243 -8.615278 18.436634 -2.500500 -4.173600 10.680400 -78.299167 1.983298 67.268921 103.371529 -61.936305 -69.925336 1.053194 0.147815 13.180284 -7.125000 0.000000 0.000000 67.282287 56.820786 11.565812 -16.859213 33.798583 -2.386063 -0.237475 1.051265 19.105214 7.125000 0.000000 0.000000 
0.686853 9.142638 -4.336746 -1.928543 3.423617 6.882569 -0.446958 22.188215 -94.756854 35.688335 13.886535 141.664194 -0.250983 -38.467194 -22.451347 1.661900 -8.123200 -23.088900 16.292556 -41.966474 -107.288517 -36.027982 -11.090555 145.188465 -1.244509 28.856407 -14.555348 -0.021300 0.941600 -2.588100 8.732451 9.377038 28.703128 0.761602 4.906160 -4.297306 -1.153553 -8.568889 18.391644 -2.536400 -4.149900 10.640500 -78.238766 2.001763 67.232897 103.168597 -61.960598 -69.754031 1.053148 0.142455 13.272784 -7.125000 0.000000 0.000000 67.519414 56.728277 11.611869 -16.829765 33.770711 -2.369778 -0.235166 1.051878 19.655124 7.125000 0.000000 0.000000 
0.685765 9.144616 -4.332394 -1.881343 3.409543 6.918930 -0.472495 21.892874 -94.786289 35.664804 13.903845 141.615492 -0.430574 -38.491384 -21.707345 1.498900 -7.733300 -21.907000 16.289748 -41.944453 -107.363653 -36.029909 -11.089679 145.190258 -1.261442 28.778807 -14.618851 -0.024200 1.003300 -2.757900 8.742913 9.375079 28.671400 0.791968 4.900672 -4.357990 -1.124699 -8.547512 18.502912 -2.521800 -4.135300 10.689200 -78.249553 2.026835 67.221944 103.092707 -61.970615 -69.691321 1.053593 0.138744 13.405793 -7.125000 0.000000 0.000000 67.564789 56.682439 11.702663 -16.781913 33.700314 -2.343023 -0.236119 1.053316 20.130601 7.125000 0.000000 0.000000 
